<svg width="57" height="58" viewBox="0 0 57 58" fill="none" xmlns="http://www.w3.org/2000/svg">
<path d="M55.3991 13.6952L29.9141 0.757341C29.442 0.518311 28.906 0.39202 28.3601 0.391174C27.8151 0.396917 27.2805 0.522879 26.8062 0.757341L1.55427 13.5461C1.07536 13.7873 0.678883 14.1357 0.40572 14.5553C0.132557 14.9748 -0.0073952 15.4504 0.000301142 15.9329V41.7002C-0.0073952 42.1828 0.132557 42.6583 0.40572 43.0779C0.678883 43.4975 1.07536 43.8459 1.55427 44.0871L27.117 57.025C27.5913 57.2595 28.1259 57.3854 28.6709 57.3912C29.2168 57.3903 29.7527 57.264 30.2249 57.025L41.1959 51.4376C41.429 51.3155 40.9939 51.0172 40.8696 50.9629C36.1433 48.9041 32.0349 45.9084 28.873 42.2156C26.2386 38.9241 24.1803 35.3087 22.7659 31.4883C20.3572 25.4397 17.9486 19.3776 15.369 13.4783C15.369 13.3969 15.369 13.3426 15.4933 13.4104C16.0527 14.197 16.6433 14.9565 17.2182 15.7295C22.7348 22.8765 29.2304 30.01 37.8238 34.4854C37.8369 34.4909 37.848 34.4996 37.8558 34.5104C37.8635 34.5212 37.8676 34.5337 37.8676 34.5464C37.8676 34.5592 37.8635 34.5716 37.8558 34.5824C37.848 34.5932 37.8369 34.6019 37.8238 34.6074L29.8053 32.9394C29.7908 32.9353 29.7751 32.935 29.7604 32.9387C29.7457 32.9423 29.7325 32.9496 29.7226 32.9598C29.7126 32.9699 29.7063 32.9824 29.7044 32.9957C29.7026 33.0089 29.7052 33.0224 29.7121 33.0343C31.6359 36.6589 34.4662 39.8611 37.9947 42.4055C41.3969 44.7591 45.4384 46.3054 49.7271 46.8944C49.9466 46.905 50.1655 46.8677 50.3643 46.7859L55.4457 44.1956C55.9246 43.9544 56.3211 43.606 56.5943 43.1864C56.8674 42.7668 57.0074 42.2913 56.9997 41.8087V16.0414C56.9945 15.5618 56.8435 15.0919 56.5624 14.6797C56.2812 14.2676 55.8798 13.9279 55.3991 13.6952Z" fill="#6F50B5"/>
</svg>
