<svg width="68" height="64" viewBox="0 0 68 64" fill="none" xmlns="http://www.w3.org/2000/svg">
<path d="M66.0902 15.343L35.687 1.09561C35.1237 0.832387 34.4843 0.693314 33.8332 0.692383C33.1829 0.698707 32.5452 0.837417 31.9793 1.09561L1.85421 15.1787C1.28289 15.4444 0.809895 15.828 0.484016 16.2901C0.158138 16.7521 -0.00882235 17.2758 0.000359257 17.8072V46.1825C-0.00882235 46.7139 0.158138 47.2376 0.484016 47.6996C0.809895 48.1617 1.28289 48.5453 1.85421 48.811L32.3501 63.0584C32.9159 63.3166 33.5537 63.4553 34.2039 63.4616C34.8551 63.4607 35.4945 63.3216 36.0578 63.0584L49.146 56.9054C49.424 56.771 48.905 56.4425 48.7567 56.3827C43.1183 54.1155 38.217 50.8166 34.4449 46.75C31.3022 43.1254 28.8467 39.1441 27.1593 34.9369C24.2858 28.2762 21.4123 21.6005 18.335 15.1041C18.335 15.0145 18.335 14.9547 18.4833 15.0294C19.1506 15.8956 19.8551 16.7319 20.541 17.5832C27.1222 25.4536 34.8713 33.3091 45.1231 38.2374C45.1388 38.2435 45.152 38.2531 45.1612 38.265C45.1705 38.2769 45.1754 38.2906 45.1754 38.3046C45.1754 38.3187 45.1705 38.3324 45.1612 38.3443C45.152 38.3562 45.1388 38.3657 45.1231 38.3718L35.5572 36.5349C35.5399 36.5304 35.5212 36.5301 35.5037 36.5342C35.4861 36.5382 35.4704 36.5462 35.4585 36.5574C35.4466 36.5686 35.4391 36.5823 35.4369 36.5969C35.4347 36.6115 35.4378 36.6263 35.446 36.6395C37.7411 40.6309 41.1176 44.1572 45.327 46.9591C49.3858 49.551 54.2072 51.2538 59.3236 51.9024C59.5854 51.9141 59.8466 51.8731 60.0837 51.7829L66.1458 48.9305C66.7171 48.6648 67.1901 48.2812 67.516 47.8191C67.8419 47.3571 68.0088 46.8334 67.9996 46.302V17.9267C67.9934 17.3985 67.8134 16.881 67.4779 16.4272C67.1425 15.9733 66.6636 15.5992 66.0902 15.343Z" fill="white"/>
</svg>
