<svg width="16" height="16" viewBox="0 0 16 16" fill="none" xmlns="http://www.w3.org/2000/svg">
<path d="M8 0.5C3.93425 0.5 0.5 3.935 0.5 8C0.5 12.065 3.93425 15.5 8 15.5C12.0658 15.5 15.5 12.065 15.5 8C15.5 3.935 12.0658 0.5 8 0.5ZM8 10.25C8.744 10.25 9.3875 10.0512 9.71975 9.719L10.7802 10.7802C9.93575 11.624 8.67575 11.75 8 11.75C5.93225 11.75 4.25 10.0677 4.25 8C4.25 5.93225 5.93225 4.25 8 4.25C8.67575 4.25 9.9365 4.376 10.7802 5.21975L9.71975 6.28025C9.38825 5.948 8.74475 5.75 8 5.75C6.7805 5.75 5.75 6.7805 5.75 8C5.75 9.2195 6.7805 10.25 8 10.25Z" fill="white"/>
</svg>
